PathFileType	4	(X/Y/Z)	C:\MyCloud\GitHub\OpenSimScripting\Matlab\Data\Gait2354_Simbody\Static_Marker.trc	
DataRate	CameraRate	NumFrames	NumMarkers	Units	OrigDataRate	OrigDataStartFrame	OrigNumFrames
100	100	9	33	mm	100	63	100
Frame#	Time	C7			CLAV			STRN			LSHO			RSHO			LASIS			RLSIS			LPSIS			RPSIS			LGTF			LLCF			LMCF			LAF			RGTF			RLCF			RMCF			RAF			RFH			RANK			RMANK			RATT			LFH			LANK			LMANK			LATT			LHEE			L5MT			LTOE			L1MT			RHEE			R5MT			RTOE			R1MT			
		X1	Y1	Z1	X2	Y2	Z2	X3	Y3	Z3	X4	Y4	Z4	X5	Y5	Z5	X6	Y6	Z6	X7	Y7	Z7	X8	Y8	Z8	X9	Y9	Z9	X10	Y10	Z10	X11	Y11	Z11	X12	Y12	Z12	X13	Y13	Z13	X14	Y14	Z14	X15	Y15	Z15	X16	Y16	Z16	X17	Y17	Z17	X18	Y18	Z18	X19	Y19	Z19	X20	Y20	Z20	X21	Y21	Z21	X22	Y22	Z22	X23	Y23	Z23	X24	Y24	Z24	X25	Y25	Z25	X26	Y26	Z26	X27	Y27	Z27	X28	Y28	Z28	X29	Y29	Z29	X30	Y30	Z30	X31	Y31	Z31	X32	Y32	Z32	X33	Y33	Z33	

63	0.63000	371.40961	1586.98755	-41.59283	528.02014	1497.20532	-27.48085	556.14960	1436.78638	-35.13517	429.98230	1561.32532	-146.19272	418.09909	1560.37085	73.74610	505.84503	990.18976	-180.99536	503.71872	997.25378	115.62172	299.73813	1023.60144	-74.74591	305.49408	1024.36047	-9.03150	392.28751	881.52112	-214.21872	460.30325	517.77466	-219.79866	449.05368	515.97882	-91.88282	532.82532	798.99963	-200.92493	438.42297	879.44855	149.19109	478.76477	514.83862	148.38240	443.46213	496.66617	22.82934	540.59045	618.84308	97.11720	452.30750	455.12479	169.42513	386.44110	48.35579	143.96069	403.25024	75.01324	47.81466	496.87430	424.77222	118.36224	432.80682	471.73682	-233.24263	384.23846	54.24657	-200.83247	402.49136	78.54069	-106.35535	479.71603	428.31314	-192.21126	336.16858	67.14717	-153.16585	502.23981	9.46543	-229.80450	589.27002	30.48239	-145.35005	531.07977	22.66560	-106.11084	332.76901	72.12137	101.49786	495.98651	19.26411	174.25352	583.34827	27.67267	100.62642	527.11444	22.51153	54.85572	
64	0.64000	371.39008	1586.98889	-41.61001	527.68768	1497.23193	-27.77027	556.11914	1436.81738	-35.17262	429.94186	1561.33411	-146.22241	418.11639	1560.42004	73.76228	505.79669	990.20013	-180.99228	503.76096	997.24982	115.63855	299.78842	1023.58069	-74.72544	305.50162	1024.36853	-9.01282	392.31290	881.48920	-214.21930	460.28653	517.78491	-219.81776	449.07678	515.98761	-91.86164	532.85614	798.98615	-200.94646	438.43643	879.45319	149.19576	478.77850	514.84570	148.37503	443.59229	496.78253	22.80996	540.59924	618.84790	97.12026	452.30487	455.12015	169.47139	386.45773	48.39135	143.97209	403.23315	75.09532	47.77409	496.89624	424.79227	118.36141	432.77713	471.76123	-233.29747	384.22458	54.28138	-200.83365	402.54605	78.58717	-106.35325	479.72018	428.32227	-192.21109	336.16324	67.13179	-153.20776	502.19174	9.44469	-229.80290	589.26013	30.46262	-145.36353	531.09900	22.66812	-106.10193	332.77597	72.10753	101.47666	495.99982	19.27313	174.23465	583.33954	27.70012	100.62229	527.12787	22.55377	54.82047	
65	0.65000	371.33157	1587.02441	-41.61638	527.63300	1497.27625	-27.77575	556.08850	1436.87964	-35.18574	429.86520	1561.41052	-146.25854	418.11304	1560.46094	73.74902	505.76257	990.21509	-180.92877	503.77319	997.34875	115.64796	299.79095	1023.65704	-74.74928	305.52005	1024.40747	-9.04538	392.36938	881.52405	-214.23032	460.28876	517.81177	-219.81328	449.10333	516.13116	-91.86088	532.87726	799.02155	-200.88028	438.47623	879.50830	149.22032	478.79172	514.88605	148.36453	443.57245	496.79642	22.84224	540.63550	618.87439	97.17396	452.31812	455.19656	169.45547	386.45819	48.42387	143.93872	403.22583	75.20719	47.70879	496.90036	424.80927	118.41311	432.80173	471.81787	-233.25749	384.18359	54.39191	-200.88985	402.50287	78.66090	-106.42083	479.75684	428.38263	-192.16177	336.16718	67.19629	-153.23540	502.16312	9.48814	-229.75786	589.24841	30.51731	-145.37894	531.08185	22.72007	-106.10201	332.76923	72.14431	101.41504	496.01355	19.29576	174.24004	583.34857	27.77721	100.60452	527.07983	22.70792	54.86600	
66	0.66000	371.27600	1586.95874	-41.60057	527.59241	1497.29919	-27.81105	556.05518	1436.84802	-35.27465	429.74902	1561.35950	-146.28665	418.08206	1560.45996	73.75139	505.83633	990.24139	-180.92567	503.77921	997.33020	115.66428	299.81442	1023.61823	-74.71907	305.53970	1024.34204	-8.97965	392.39236	881.53223	-214.15260	460.34781	517.81250	-219.79591	449.10422	516.06873	-91.87086	532.90448	799.01172	-200.87119	438.47028	879.48724	149.23248	478.79544	514.88434	148.39528	443.60724	496.79498	22.85830	540.63489	618.88818	97.15755	452.34290	455.15125	169.45055	386.42990	48.40567	143.95189	403.20486	75.16815	47.74870	496.89319	424.80945	118.40942	432.84998	471.78793	-233.26508	384.15759	54.36531	-200.86781	402.45911	78.63488	-106.33579	479.77646	428.36279	-192.17746	336.15811	67.17965	-153.20015	502.14328	9.53298	-229.84892	589.25616	30.52446	-145.36046	531.07544	22.73437	-106.10381	332.75574	72.13914	101.46925	495.97708	19.28899	174.23479	583.32385	27.73183	100.60565	527.10175	22.55661	54.83892	
67	0.67000	371.23199	1586.95044	-41.57355	527.58545	1497.25024	-27.86695	556.05463	1436.82043	-35.29554	429.78043	1561.25964	-146.24387	418.05487	1560.37061	73.74792	505.87308	990.14508	-180.88010	503.84756	997.21075	115.68215	299.85989	1023.56818	-74.68332	305.57214	1024.33582	-8.93818	392.41141	881.49072	-214.16023	460.42175	517.72845	-219.75545	449.12878	515.96545	-91.82504	532.96802	798.88965	-200.86064	438.52115	879.42480	149.23344	478.83377	514.79041	148.35974	443.57809	496.65588	22.86585	540.67596	618.78436	97.13052	452.37912	455.08517	169.48991	386.47437	48.34796	143.98083	403.26385	74.98965	47.82088	496.95065	424.68622	118.36828	432.91470	471.67435	-233.23735	384.24997	54.23519	-200.82184	402.54968	78.50528	-106.37995	479.84555	428.30447	-192.16792	336.18542	67.11409	-153.18811	502.22107	9.39544	-229.80194	589.28143	30.45086	-145.34468	531.08282	22.63355	-106.12989	332.78348	72.11045	101.48098	496.00565	19.23984	174.24188	583.34937	27.66246	100.60020	527.14624	22.43726	54.77346	
68	0.68000	371.19226	1586.96375	-41.56952	527.56085	1497.29785	-27.87377	556.01245	1436.88843	-35.31429	429.72650	1561.37915	-146.30136	418.07559	1560.48230	73.74402	505.80072	990.17780	-180.81798	503.86102	997.26825	115.69401	299.85114	1023.65320	-74.70300	305.57120	1024.39929	-8.93739	392.44437	881.55164	-214.15515	460.35190	517.79865	-219.76541	449.18774	516.02460	-91.85868	532.93396	798.98926	-200.82805	438.53656	879.46429	149.26648	478.84402	514.84875	148.36740	443.69604	496.80319	22.85559	540.64447	618.85272	97.16878	452.35922	455.15616	169.46024	386.45715	48.43751	143.94464	403.21463	75.16005	47.74525	496.94949	424.76593	118.39494	432.85846	471.79617	-233.24998	384.19595	54.39026	-200.87051	402.50620	78.65391	-106.35931	479.83185	428.35736	-192.14258	336.15356	67.17577	-153.23544	502.15103	9.48554	-229.79967	589.25421	30.49470	-145.38258	531.08130	22.70856	-106.07920	332.77393	72.14794	101.45029	495.99826	19.29632	174.23209	583.34723	27.80564	100.63933	527.08398	22.69656	54.85884	
69	0.69000	371.16068	1586.93396	-41.59119	527.54474	1497.33154	-27.87776	556.01813	1436.95667	-35.31895	429.67444	1561.37878	-146.32094	418.04401	1560.51453	73.72002	505.82697	990.20850	-180.82590	503.86301	997.34137	115.71741	299.87863	1023.63525	-74.70414	305.61508	1024.35229	-8.90877	392.48328	881.55988	-214.10631	460.35413	517.83514	-219.76363	449.18338	516.11212	-91.81650	532.94550	799.02716	-200.82843	438.57056	879.48340	149.27811	478.86722	514.88483	148.41147	443.69391	496.85434	22.89918	540.68176	618.89984	97.20937	452.38333	455.20126	169.47090	386.44418	48.45166	143.95340	403.18863	75.20910	47.72994	496.92761	424.82294	118.44562	432.88159	471.81805	-233.24013	384.17041	54.44415	-200.88730	402.46878	78.67448	-106.34835	479.83569	428.37656	-192.14836	336.17502	67.21690	-153.21809	502.15463	9.57104	-229.82858	589.24945	30.53938	-145.36455	531.07312	22.78260	-106.10662	332.77542	72.17662	101.44766	495.99326	19.31380	174.22688	583.32922	27.78883	100.61603	527.06433	22.70467	54.85098	
70	0.70000	371.13568	1586.87000	-41.55612	527.53107	1497.30969	-27.91165	556.01624	1436.90137	-35.36473	429.63107	1561.25806	-146.33482	418.00912	1560.41272	73.71794	505.84131	990.13062	-180.80040	503.91306	997.23267	115.70338	299.90753	1023.55798	-74.61909	305.64990	1024.30603	-8.84820	392.54108	881.51129	-214.10327	460.44345	517.77124	-219.75771	449.18787	515.95508	-91.81917	533.00385	798.96558	-200.81596	438.60904	879.40436	149.30647	478.87659	514.79980	148.38531	443.72287	496.75446	22.88320	540.72656	618.82263	97.18208	452.43539	455.09088	169.49217	386.44754	48.35864	143.96713	403.21289	75.05858	47.79165	496.96512	424.69656	118.39709	432.91693	471.74005	-233.24344	384.20520	54.29958	-200.81348	402.48431	78.55698	-106.34330	479.87753	428.31689	-192.13902	336.18512	67.15982	-153.17078	502.20035	9.51659	-229.82700	589.26581	30.46873	-145.35562	531.08319	22.68993	-106.08618	332.78168	72.10558	101.49899	496.01208	19.23182	174.19699	583.34381	27.69706	100.60469	527.13452	22.46594	54.77105	
71	0.71000	371.10129	1586.89111	-41.58274	527.83636	1497.47876	-27.75185	556.00427	1436.89270	-35.40897	429.64114	1561.27893	-146.36954	418.03259	1560.44543	73.73853	505.81293	990.09680	-180.76678	504.00525	997.17041	115.68964	299.92917	1023.59082	-74.64135	305.65054	1024.32581	-8.84351	392.50543	881.54987	-214.10548	460.43283	517.77020	-219.74409	449.18701	516.01074	-91.78738	533.01538	798.92480	-200.84062	438.64880	879.41315	149.31642	478.93106	514.81854	148.41368	443.81870	496.79352	22.89656	540.74054	618.80859	97.19060	452.43912	455.14252	169.48697	386.47354	48.39713	143.97768	403.24133	75.09057	47.76011	497.00568	424.71524	118.38531	432.91989	471.73737	-233.18858	384.25336	54.29740	-200.83427	402.55246	78.58219	-106.35681	479.87125	428.31982	-192.13307	336.18521	67.14994	-153.22812	502.20938	9.46496	-229.81113	589.24487	30.48693	-145.36838	531.09528	22.64191	-106.11838	332.78632	72.12495	101.46861	496.00500	19.27434	174.23804	583.37878	27.71635	100.60770	527.13751	22.57616	54.81582	
